<?xml version="1.0" encoding="iso-8859-1"?>
<!-- Uploaded to: SVG Repo, www.svgrepo.com, Generator: SVG Repo Mixer Tools -->
<!DOCTYPE svg PUBLIC "-//W3C//DTD SVG 1.1//EN" "http://www.w3.org/Graphics/SVG/1.1/DTD/svg11.dtd">
<svg fill="#000000" height="800px" width="800px" version="1.1" id="Capa_1" xmlns="http://www.w3.org/2000/svg" xmlns:xlink="http://www.w3.org/1999/xlink" 
	 viewBox="0 0 54 54" xml:space="preserve">
<g>
	<path d="M49.217,0H4.783C2.146,0,0,2.146,0,4.782v44.435C0,51.854,2.146,54,4.783,54h44.435C51.854,54,54,51.854,54,49.218V4.783
		C54,2.146,51.854,0,49.217,0z M52,49.218C52,50.752,50.751,52,49.217,52H4.783C3.249,52,2,50.751,2,49.217V4.782
		C2,3.248,3.249,2,4.783,2h44.435C50.751,2,52,3.249,52,4.783V49.218z"/>
	<path d="M28.707,13.956L28.707,13.956c-0.356-0.617-0.995-0.985-1.707-0.985s-1.351,0.368-1.707,0.985L13.119,35.044
		c-0.356,0.616-0.356,1.354,0,1.971C13.475,37.632,14.113,38,14.825,38h24.35c0.712,0,1.351-0.368,1.707-0.985
		c0.356-0.617,0.356-1.354,0-1.971L28.707,13.956z M14.851,36.044l12.124-21.089l0.867-0.499l-0.866,0.5L39.175,36L14.851,36.044z"
		/>
</g>
</svg>